<svg width="24" height="24" viewBox="0 0 24 24" fill="none" xmlns="http://www.w3.org/2000/svg">
<path d="M11.9865 0.131866C6.85531 0.131866 2.68088 4.3063 2.68088 9.43753V21.7693C2.68088 22.9118 3.61029 23.8412 4.75281 23.8412C5.89534 23.8412 6.82475 22.9118 6.82475 21.7693V20.7511C6.82475 19.8992 7.51785 19.2061 8.36981 19.2061C9.22177 19.2061 9.91487 19.8992 9.91487 20.7511V21.7693C9.91461 22.9118 10.8443 23.8412 11.9865 23.8412C13.1291 23.8412 14.0585 22.9118 14.0585 21.7693V20.7511C14.0585 19.8992 14.7516 19.2061 15.6033 19.2061C16.4552 19.2061 17.1483 19.8992 17.1483 20.7511V21.7693C17.1483 22.9118 18.0777 23.8412 19.2203 23.8412C20.3625 23.8412 21.2919 22.9118 21.2919 21.7693V9.43753C21.2922 4.3063 17.1178 0.131866 11.9865 0.131866ZM20.7653 21.7693C20.7653 22.6213 20.0722 23.3144 19.2205 23.3144C18.3686 23.3144 17.6755 22.6213 17.6755 21.7693V20.7511C17.6755 19.6086 16.7461 18.6792 15.6035 18.6792C14.4613 18.6792 13.5319 19.6086 13.5319 20.7511V21.7693C13.5316 22.6213 12.8385 23.3144 11.9865 23.3144C11.1346 23.3144 10.4415 22.6213 10.4415 21.7693V20.7511C10.4415 19.6086 9.51208 18.6792 8.36955 18.6792C7.22728 18.6792 6.29761 19.6086 6.29761 20.7511V21.7693C6.29761 22.6213 5.60451 23.3144 4.75255 23.3144C3.90059 23.3144 3.20749 22.6213 3.20749 21.7693V9.43753C3.20775 4.59687 7.14588 0.658741 11.9865 0.658741C16.8272 0.658741 20.7653 4.59687 20.7653 9.43753V21.7693Z" fill="black"/>
<path d="M8.29841 6.30236C6.49228 6.30236 5.02283 7.77181 5.02283 9.57794C5.02283 11.3841 6.49228 12.8535 8.29841 12.8535C10.1045 12.8535 11.574 11.3841 11.574 9.57794C11.574 7.77181 10.1045 6.30236 8.29841 6.30236ZM9.54104 11.4073C9.03656 11.4073 8.62639 10.9968 8.62639 10.4926C8.62639 9.98838 9.03682 9.57794 9.54104 9.57794C10.0453 9.57794 10.4557 9.98838 10.4557 10.4926C10.4557 10.9968 10.0453 11.4073 9.54104 11.4073ZM10.9604 10.25C10.8445 9.57057 10.2531 9.05107 9.54104 9.05107C8.74599 9.05107 8.09951 9.69781 8.09951 10.4926C8.09951 11.2874 8.74625 11.9341 9.54104 11.9341C9.60479 11.9341 9.66723 11.9286 9.72914 11.9204C9.31185 12.1762 8.82291 12.3266 8.29867 12.3266C6.78312 12.3266 5.54997 11.0935 5.54997 9.57794C5.54997 8.06239 6.78312 6.82924 8.29867 6.82924C9.81423 6.82924 11.0474 8.06239 11.0474 9.57794C11.0471 9.81003 11.015 10.0345 10.9604 10.25Z" fill="black"/>
<path d="M15.6747 6.30236C13.8688 6.30236 12.3991 7.77181 12.3991 9.57794C12.3991 11.3841 13.8688 12.8535 15.6747 12.8535C17.4805 12.8535 18.9502 11.3841 18.9502 9.57794C18.9502 7.77181 17.4805 6.30236 15.6747 6.30236ZM16.9173 11.4073C16.4131 11.4073 16.0026 10.9968 16.0026 10.4926C16.0026 9.98838 16.4131 9.57794 16.9173 9.57794C17.4215 9.57794 17.8319 9.98838 17.8319 10.4926C17.8319 10.9968 17.4215 11.4073 16.9173 11.4073ZM18.3367 10.2502C18.2208 9.57057 17.6294 9.05107 16.9173 9.05107C16.1222 9.05107 15.4758 9.69781 15.4758 10.4926C15.4758 11.2874 16.1222 11.9341 16.9173 11.9341C16.981 11.9341 17.0435 11.9286 17.1054 11.9204C16.6881 12.1762 16.1992 12.3266 15.6749 12.3266C14.1594 12.3266 12.9262 11.0935 12.9262 9.57794C12.9262 8.06239 14.1594 6.82924 15.6749 6.82924C17.1905 6.82924 18.4236 8.06239 18.4236 9.57794C18.4234 9.81029 18.3912 10.0345 18.3367 10.2502Z" fill="black"/>
</svg>
