<svg width="21" height="20" viewBox="0 0 21 20" fill="none" xmlns="http://www.w3.org/2000/svg">
<path d="M17.3933 11.9577C17.4115 11.9164 17.4213 11.8729 17.4348 11.8303C17.4474 11.79 17.4637 11.7514 17.4725 11.7096C17.4902 11.6249 17.4995 11.5388 17.4995 11.4527C17.4995 11.4514 17.5 11.4505 17.5 11.4496C17.5 11.3622 17.4902 11.2748 17.4725 11.1887C17.4641 11.1492 17.4488 11.1129 17.4371 11.0747C17.4231 11.0299 17.4124 10.9842 17.3933 10.9407C17.3733 10.8946 17.3458 10.8529 17.3206 10.8094C17.302 10.777 17.2871 10.7433 17.2652 10.7122C17.2135 10.6385 17.1548 10.5698 17.0891 10.5072L13.5288 7.11641C12.9827 6.59639 12.0985 6.59639 11.5524 7.11641C11.0064 7.63599 11.0064 8.47903 11.5524 8.99861L12.7284 10.1185H9.18526C7.59145 10.1185 6.29534 8.88413 6.29534 7.36622V5.49778C6.29534 4.76256 5.66965 4.16666 4.89767 4.16666C4.12569 4.16666 3.5 4.76256 3.5 5.49778V7.36622C3.5 10.3519 6.05075 12.7808 9.18526 12.7808H12.7288L11.5524 13.9011C11.0064 14.4211 11.0064 15.2637 11.5524 15.7833C11.8255 16.0429 12.1828 16.1729 12.5406 16.1729C12.8984 16.1729 13.2562 16.0429 13.5288 15.7829L17.0891 12.3916C17.1548 12.3291 17.2139 12.2603 17.2657 12.1862C17.2862 12.1569 17.2997 12.1254 17.3178 12.0952C17.3439 12.05 17.3723 12.006 17.3933 11.9577Z" fill="black"/>
</svg>
