<svg width="24" height="24" viewBox="0 0 24 24" fill="none" xmlns="http://www.w3.org/2000/svg">
<g clip-path="url(#clip0_28_202)">
<path d="M11.9866 23.6821C10.3256 23.6821 9.65699 22.7432 9.11958 21.9885C8.66699 21.3528 8.30951 20.851 7.46677 20.8004C6.57293 20.7466 6.09215 21.1268 5.53498 21.5662C4.98624 21.9995 4.364 22.493 3.34845 22.4292C1.15665 22.1966 0.0813007 20.7045 0.133725 17.9929L0.138203 17.7622L0.341577 17.6526C4.114 15.6223 5.87087 12.0764 5.87087 6.49414C5.87087 3.0742 8.17147 0.291771 10.9997 0.291245H12.9734C15.8017 0.291508 18.1023 3.07393 18.1023 6.49388C18.1023 12.0764 19.8594 15.622 23.6316 17.6523L23.8347 17.7619L23.8394 17.9927C23.8918 20.7042 22.8162 22.1963 20.6429 22.4276C19.6076 22.4906 18.9872 21.9993 18.4382 21.5659C17.881 21.1263 17.3986 20.7472 16.5064 20.8001C15.6636 20.8504 15.3061 21.3525 14.8538 21.988C14.3164 22.743 13.6475 23.6821 11.9866 23.6821ZM7.30107 20.0051C7.37009 20.0051 7.44095 20.0072 7.51366 20.0114C8.73364 20.0841 9.2808 20.852 9.76316 21.5298C10.2837 22.2606 10.7331 22.8918 11.9866 22.8918C13.2403 22.8918 13.6897 22.2606 14.2097 21.5298C14.6923 20.8525 15.239 20.0846 16.4589 20.0116C17.6563 19.9408 18.3304 20.4745 18.9276 20.9458C19.4495 21.3578 19.8628 21.6834 20.5773 21.6407C22.2443 21.4627 23.0394 20.3781 23.0509 18.2353C19.1371 16.0361 17.312 12.2979 17.312 6.49388C17.312 3.5094 15.3652 1.08129 12.9721 1.08129H11.0008C8.60798 1.08129 6.66118 3.5094 6.66118 6.49388C6.66118 12.2974 4.83608 16.0361 0.922193 18.235C0.933521 20.3778 1.7291 21.4627 3.41379 21.6421C4.11137 21.6829 4.52312 21.3578 5.04525 20.9455C5.60638 20.5032 6.23784 20.0051 7.30107 20.0051Z" fill="black"/>
<path d="M10.2848 5.43908L10.828 4.77284C10.9658 4.60372 10.9405 4.35477 10.7716 4.21673C10.6022 4.07895 10.3538 4.10424 10.2155 4.2731L9.77476 4.81368L9.33403 4.2731C9.19599 4.10398 8.94757 4.07842 8.77791 4.21673C8.60879 4.35477 8.5835 4.60372 8.72154 4.77284L9.26475 5.43908L8.72154 6.10531C8.58376 6.27444 8.60905 6.52338 8.77791 6.66143C8.85141 6.72123 8.93966 6.7502 9.02739 6.7502C9.14198 6.7502 9.25579 6.70068 9.33403 6.60479L9.77476 6.06421L10.2155 6.60479C10.2937 6.70041 10.4073 6.7502 10.5221 6.7502C10.6099 6.7502 10.6981 6.72123 10.7716 6.66143C10.9407 6.52338 10.966 6.27444 10.828 6.10531L10.2848 5.43908Z" fill="black"/>
<path d="M14.7629 5.43907L15.3064 4.77284C15.4442 4.60371 15.4192 4.35476 15.25 4.21699C15.0806 4.07895 14.8317 4.1045 14.6942 4.27363L14.2535 4.8142L13.8127 4.27363C13.6749 4.1045 13.4257 4.07868 13.2569 4.21699C13.0877 4.35476 13.0627 4.60398 13.2005 4.77284L13.744 5.43907L13.2005 6.10531C13.0627 6.27443 13.0877 6.52338 13.2569 6.66116C13.3301 6.72096 13.4186 6.74994 13.5063 6.74994C13.6212 6.74994 13.7347 6.70041 13.8127 6.60452L14.2535 6.06395L14.6942 6.60452C14.7722 6.70041 14.886 6.74994 15.0006 6.74994C15.0883 6.74994 15.1768 6.72096 15.25 6.66116C15.4192 6.52338 15.4442 6.27417 15.3064 6.10531L14.7629 5.43907Z" fill="black"/>
<path d="M14.9466 8.36034H9.0266C8.80821 8.36034 8.63144 8.5371 8.63144 8.75549C8.63144 8.97388 8.80821 9.15065 9.0266 9.15065H10.7345V9.93938C10.7345 10.9107 11.5248 11.701 12.4958 11.701C13.4668 11.701 14.2574 10.9107 14.2574 9.93938V9.15065H14.9466C15.1647 9.15065 15.3417 8.97388 15.3417 8.75549C15.3417 8.5371 15.1647 8.36034 14.9466 8.36034ZM13.4671 9.93938C13.4671 10.4749 13.0316 10.9107 12.4958 10.9107C11.9602 10.9107 11.5248 10.4749 11.5248 9.93938V9.15065H13.4671V9.93938Z" fill="black"/>
</g>
<defs>
<clipPath id="clip0_28_202">
<rect width="24" height="24" fill="white"/>
</clipPath>
</defs>
</svg>
