<svg width="24" height="19" viewBox="0 0 24 19" fill="none" xmlns="http://www.w3.org/2000/svg">
<path d="M0.838092 3.26357L3.38217 0.824403C3.38224 0.82434 3.3823 0.824277 3.38237 0.824213C3.50398 0.708078 3.70443 0.586329 3.9382 0.49341C4.17172 0.400587 4.40465 0.35 4.57969 0.35H7.81613C7.98384 0.35 8.2045 0.403439 8.423 0.502796C8.64176 0.602272 8.8228 0.731584 8.92684 0.852786C8.92694 0.852892 8.92703 0.852998 8.92712 0.853105L11.1399 3.4469L11.1399 3.44701C11.5736 3.95485 12.3057 3.95432 12.7397 3.44735L12.7401 3.4469L14.9528 0.853122C14.9529 0.852996 14.953 0.852871 14.9531 0.852745C15.0572 0.731505 15.2381 0.60223 15.4567 0.50281C15.6751 0.403501 15.896 0.35 16.0645 0.35H19.301C19.4753 0.35 19.708 0.400543 19.9416 0.493411C20.1756 0.586416 20.3763 0.70826 20.4979 0.824403L23.0422 3.26378C23.1633 3.38003 23.2889 3.57026 23.3844 3.79104C23.4801 4.01231 23.5308 4.22998 23.5308 4.39018V9.32696C23.5308 9.47571 23.4764 9.67373 23.3708 9.87067C23.2655 10.067 23.1281 10.2272 22.9977 10.3166L22.9974 10.3169L12.4264 17.5872L12.4262 17.5873C12.3078 17.6688 12.1326 17.7202 11.9397 17.7202C11.7468 17.7202 11.572 17.6688 11.4541 17.5875L11.4537 17.5872L0.882669 10.3169L0.881801 10.3163C0.751142 10.227 0.614128 10.0672 0.509258 9.87105C0.404122 9.67439 0.35 9.47618 0.35 9.32696V4.39018C0.35 4.22997 0.400629 4.0123 0.49628 3.79098C0.59167 3.57026 0.717096 3.38005 0.837911 3.26375C0.837971 3.26369 0.838032 3.26363 0.838092 3.26357Z" stroke="#242424" stroke-width="0.7"/>
</svg>
