<svg width="22" height="22" viewBox="0 0 22 22" fill="none" xmlns="http://www.w3.org/2000/svg">
<path d="M10.8998 11.3376C7.80735 11.3376 5.29132 8.8218 5.29132 5.72935C5.29132 2.63666 7.80735 0.12088 10.8998 0.12088C13.9922 0.12088 16.508 2.63666 16.508 5.72935C16.508 8.8218 13.9922 11.3376 10.8998 11.3376ZM10.8998 0.837364C8.20242 0.837364 6.00781 3.03173 6.00781 5.72935C6.00781 8.42673 8.20217 10.6211 10.8998 10.6211C13.5972 10.6211 15.7915 8.42673 15.7915 5.72935C15.7915 3.03173 13.5972 0.837364 10.8998 0.837364Z" fill="black"/>
<path d="M17.9369 21.8545H4.03848C3.84046 21.8545 3.68011 21.6941 3.68011 21.4961V17.8613C3.68011 14.8343 6.14301 12.3711 9.17002 12.3711H12.8048C15.8319 12.3711 18.295 14.834 18.295 17.8613V21.4961C18.295 21.6941 18.1346 21.8545 17.9369 21.8545ZM4.39684 21.138H17.5787V17.8613C17.5787 15.2291 15.4375 13.0876 12.8051 13.0876H9.17026C6.53808 13.0876 4.39684 15.2289 4.39684 17.8613V21.138Z" fill="black"/>
</svg>
