<svg width="20" height="20" viewBox="0 0 20 20" fill="none" xmlns="http://www.w3.org/2000/svg">
<g clip-path="url(#clip0_13_74)">
<path d="M19.6104 18.3687L14.3515 13.1097C15.4892 11.6952 16.1082 9.95016 16.1082 8.10895C16.1082 5.97226 15.2762 3.96355 13.7652 2.45251C12.2544 0.941917 10.2459 0.109894 8.10917 0.109894C5.97248 0.109894 3.96376 0.941917 2.45273 2.45273C0.941917 3.96355 0.109894 5.97248 0.109894 8.10917C0.109894 10.2459 0.941917 12.2546 2.45273 13.7654C3.96354 15.2764 5.97248 16.1085 8.10917 16.1085C9.95038 16.1085 11.6954 15.4894 13.1099 14.3518L18.3687 19.6106C18.54 19.7819 18.765 19.8677 18.9896 19.8677C19.2142 19.8677 19.4392 19.7819 19.6104 19.6104C19.9535 19.2677 19.9535 18.7114 19.6104 18.3687ZM3.69462 12.5235C2.51552 11.3444 1.86614 9.77673 1.86614 8.10917C1.86614 6.44161 2.51552 4.87394 3.69462 3.69484C4.87372 2.51574 6.44161 1.86614 8.10917 1.86614C9.77673 1.86614 11.3444 2.51552 12.5235 3.69462C13.7026 4.87372 14.352 6.44161 14.352 8.10895C14.352 9.77651 13.7026 11.3442 12.5235 12.5233C11.3444 13.7024 9.77673 14.3518 8.10917 14.3518C6.44161 14.352 4.87372 13.7026 3.69462 12.5235Z" fill="black"/>
</g>
<defs>
<clipPath id="clip0_13_74">
<rect width="20" height="20" fill="white"/>
</clipPath>
</defs>
</svg>
