<svg width="21" height="20" viewBox="0 0 21 20" fill="none" xmlns="http://www.w3.org/2000/svg">
<path d="M10.4882 19.8677C6.87226 19.8677 3.57346 17.9747 1.879 14.9272L1.70773 14.6189L1.879 14.3109C2.84298 12.5769 4.39407 11.1506 6.24597 10.2948C6.91053 9.98814 7.68434 9.99253 8.3701 10.3062C9.03373 10.6101 9.74646 10.7642 10.488 10.7642C11.2298 10.7642 11.9425 10.6101 12.6059 10.3062C13.2917 9.99231 14.0657 9.98814 14.73 10.2948C16.5822 11.1506 18.1333 12.5771 19.097 14.3109C19.2757 14.6323 19.147 15.0308 18.8093 15.2011C18.4712 15.3719 18.0533 15.2488 17.8746 14.9272C17.0471 13.439 15.7162 12.2146 14.1261 11.4801C13.844 11.3495 13.5081 11.3549 13.205 11.4937C12.3533 11.8834 11.4391 12.0811 10.4882 12.0811C9.53739 12.0811 8.62343 11.8834 7.77101 11.4932C7.46789 11.3543 7.13181 11.3492 6.84967 11.4796C5.37096 12.1628 4.11608 13.2697 3.28187 14.6189C4.78179 17.0531 7.50985 18.5505 10.4882 18.5505C11.0829 18.5505 11.677 18.4908 12.2535 18.3727C12.625 18.2956 12.9945 18.5224 13.0748 18.8783C13.1552 19.2337 12.9173 19.5841 12.5439 19.6605C11.8722 19.7981 11.1807 19.8677 10.4882 19.8677Z" fill="black"/>
<path d="M10.4882 9.71373C7.70809 9.71373 5.44635 7.55947 5.44635 4.9117C5.44635 2.26393 7.70809 0.109894 10.4882 0.109894C13.2684 0.109894 15.5301 2.26393 15.5301 4.9117C15.5301 7.55947 13.2684 9.71373 10.4882 9.71373ZM10.4882 1.42708C8.47084 1.42708 6.8294 2.99036 6.8294 4.9117C6.8294 6.83326 8.47084 8.39654 10.4882 8.39654C12.5057 8.39654 14.1471 6.83326 14.1471 4.9117C14.1471 2.99036 12.5057 1.42708 10.4882 1.42708Z" fill="black"/>
<path d="M19.1249 17.7822C19.1339 17.7617 19.1387 17.7402 19.1454 17.7191C19.1516 17.6992 19.1597 17.6801 19.1641 17.6594C19.1728 17.6175 19.1774 17.5749 19.1774 17.5323C19.1774 17.5317 19.1777 17.5312 19.1777 17.5308C19.1777 17.4875 19.1728 17.4443 19.1641 17.4017C19.1599 17.3822 19.1523 17.3642 19.1466 17.3453C19.1396 17.3231 19.1343 17.3005 19.1249 17.279C19.115 17.2562 19.1014 17.2355 19.0889 17.214C19.0797 17.198 19.0723 17.1813 19.0615 17.1659C19.0359 17.1295 19.0069 17.0955 18.9744 17.0645L17.2128 15.3868C16.9427 15.1296 16.5052 15.1296 16.235 15.3868C15.9649 15.6439 15.9649 16.061 16.235 16.3181L16.8168 16.8722H15.0638C14.2752 16.8722 13.634 16.2615 13.634 15.5104V14.586C13.634 14.2222 13.3244 13.9274 12.9424 13.9274C12.5605 13.9274 12.2509 14.2222 12.2509 14.586V15.5104C12.2509 16.9877 13.5129 18.1894 15.0638 18.1894H16.817L16.235 18.7437C15.9649 19.001 15.9649 19.4179 16.235 19.675C16.3701 19.8034 16.5469 19.8677 16.7239 19.8677C16.901 19.8677 17.078 19.8034 17.2128 19.6747L18.9744 17.9969C19.0069 17.9659 19.0361 17.9319 19.0617 17.8952C19.0719 17.8807 19.0786 17.8651 19.0875 17.8502C19.1005 17.8278 19.1145 17.8061 19.1249 17.7822Z" fill="black"/>
</svg>
